<svg width="996" height="381" viewBox="0 0 996 381" fill="none" xmlns="http://www.w3.org/2000/svg">
<path d="M254.823 222.872H310.299V282.699H254.823V372.44H189.556V282.699H0.283691V236.469L163.45 8.03629H254.823V222.872ZM189.556 72.2149L84.0423 222.872H189.556V72.2149Z" fill="#E3E3E3"/>
<path d="M352.722 235.381V145.096C352.722 103.035 366.319 68.4077 393.514 41.2134C421.071 14.019 455.698 0.421875 497.396 0.421875C538.732 0.421875 573.178 14.019 600.735 41.2134C628.292 68.0451 642.07 102.491 642.07 144.552V235.381C642.07 277.441 628.11 312.069 600.191 339.263C572.634 366.458 538.188 380.055 496.852 380.055C455.517 380.055 421.071 366.458 393.514 339.263C366.319 312.069 352.722 277.441 352.722 235.381ZM417.989 145.096V235.381C417.989 259.675 425.241 279.073 439.744 293.577C454.61 308.08 473.646 315.332 496.852 315.332C520.058 315.332 539.275 308.08 554.504 293.577C569.733 278.711 577.348 259.312 577.348 235.381V144.552C577.348 120.983 569.733 101.766 554.504 86.8998C539.638 71.671 520.602 64.0566 497.396 64.0566C474.19 64.0566 455.154 71.4897 440.288 86.356C425.422 101.222 417.989 120.802 417.989 145.096Z" fill="#E3E3E3"/>
<path d="M940.524 222.872H996V282.699H940.524V372.44H875.257V282.699H685.985V236.469L849.151 8.03629H940.524V222.872ZM875.257 72.2149L769.743 222.872H875.257V72.2149Z" fill="#E3E3E3"/>
</svg>
