<svg width="21" height="21" viewBox="0 0 21 21" fill="none" xmlns="http://www.w3.org/2000/svg">
<path d="M14.277 19.0811H7.57988C3.71227 19.0811 2.99232 17.2812 2.80815 15.5316L2.18029 8.82609C2.08821 7.94709 2.06309 6.64951 2.93372 5.67843C3.68715 4.84128 4.9345 4.43945 6.74273 4.43945H15.1142C16.9308 4.43945 18.1781 4.84965 18.9232 5.67843C19.7938 6.64951 19.7687 7.94709 19.6766 8.83446L19.0488 15.5232C18.8646 17.2812 18.1446 19.0811 14.277 19.0811ZM6.74273 5.6868C5.32796 5.6868 4.35687 5.96306 3.86295 6.51557C3.45275 6.96763 3.31881 7.66246 3.42764 8.70052L4.0555 15.406C4.19781 16.7287 4.55778 17.8254 7.57988 17.8254H14.277C17.2908 17.8254 17.6591 16.7287 17.8014 15.3977L18.4293 8.70889C18.5381 7.66246 18.4042 6.96763 17.994 6.51557C17.5 5.96306 16.5289 5.6868 15.1142 5.6868H6.74273Z" fill="#121212"/>
<path d="M14.277 5.68633C13.9338 5.68633 13.6492 5.4017 13.6492 5.05847V4.38875C13.6492 2.89863 13.6492 2.33775 11.5982 2.33775H10.2587C8.20774 2.33775 8.20774 2.89863 8.20774 4.38875V5.05847C8.20774 5.4017 7.92311 5.68633 7.57988 5.68633C7.23666 5.68633 6.95203 5.4017 6.95203 5.05847V4.38875C6.95203 2.91538 6.95203 1.08203 10.2587 1.08203H11.5982C14.9049 1.08203 14.9049 2.91538 14.9049 4.38875V5.05847C14.9049 5.4017 14.6203 5.68633 14.277 5.68633Z" fill="#121212"/>
<path d="M10.9285 14.0594C8.6263 14.0594 8.6263 12.6362 8.6263 11.7823V10.9201C8.6263 9.73971 8.91093 9.45508 10.0913 9.45508H11.7656C12.946 9.45508 13.2306 9.73971 13.2306 10.9201V11.7572C13.2306 12.6279 13.2306 14.0594 10.9285 14.0594ZM9.88202 10.7108C9.88202 10.7778 9.88202 10.8531 9.88202 10.9201V11.7823C9.88202 12.6446 9.88202 12.8037 10.9285 12.8037C11.9749 12.8037 11.9749 12.6697 11.9749 11.774V10.9201C11.9749 10.8531 11.9749 10.7778 11.9749 10.7108C11.9079 10.7108 11.8326 10.7108 11.7656 10.7108H10.0913C10.0243 10.7108 9.94899 10.7108 9.88202 10.7108Z" fill="#121212"/>
<path d="M12.6027 12.4023C12.293 12.4023 12.0167 12.1679 11.9833 11.8498C11.9414 11.5065 12.1842 11.1884 12.5274 11.1466C14.7375 10.8703 16.8554 10.0332 18.6386 8.73559C18.9148 8.5263 19.3083 8.59327 19.5176 8.8779C19.7185 9.15416 19.6599 9.54762 19.3752 9.7569C17.4163 11.18 15.1058 12.0925 12.6781 12.4023C12.653 12.4023 12.6279 12.4023 12.6027 12.4023Z" fill="#121212"/>
<path d="M9.25417 12.4117C9.22905 12.4117 9.20394 12.4117 9.17883 12.4117C6.88505 12.1522 4.64987 11.3151 2.71607 9.9924C2.43144 9.79986 2.3561 9.4064 2.54864 9.12177C2.74119 8.83714 3.13464 8.7618 3.41927 8.95434C5.18565 10.1598 7.21991 10.9216 9.31277 11.1644C9.656 11.2063 9.90714 11.516 9.86528 11.8592C9.84017 12.1773 9.57228 12.4117 9.25417 12.4117Z" fill="#121212"/>
</svg>
